<?xml version="1.0" encoding="utf-8"?>
<!-- Generator: Adobe Illustrator 19.0.0, SVG Export Plug-In . SVG Version: 6.00 Build 0)  -->
<svg version="1.1" id="Layer_1" xmlns="http://www.w3.org/2000/svg" xmlns:xlink="http://www.w3.org/1999/xlink" x="0px" y="0px"
	 viewBox="-54.1 13 200 50" style="enable-background:new -54.1 13 200 50;" xml:space="preserve">
<style type="text/css">
	.st0{fill:#816CAF;}
	.st1{fill:#2D2DD6;fill-opacity:0;}
	.st2{fill:#282667;}
	.st3{fill:#BB1E53;}
</style>
<path class="st0" d="M-48.7,48.4c0,0.8,0.1,1.6,0.4,2.3l7.8-5.5c1.7-1.2,2.2-3.6,0.9-5.4l-9.1-13c0,0.3-0.1,0.6-0.1,0.9V48.4z"/>
<rect id="XMLID_17_" x="-64" y="8" class="st1" width="219.9" height="60"/>
<g>
	<g>
		<path class="st2" d="M-5,48.5h-4.5V28.6h7.8c0.8,0,1.4,0.1,2.1,0.3s1.2,0.5,1.7,0.8c0.5,0.3,1,0.7,1.4,1.2c0.4,0.4,0.7,0.9,1,1.4
			s0.5,1,0.6,1.6c0.1,0.5,0.2,1.1,0.2,1.6c0,0.5-0.1,1.1-0.2,1.6c-0.1,0.5-0.3,1-0.5,1.5s-0.6,1-1,1.4c-0.4,0.5-0.9,0.9-1.4,1.3
			l5.3,7.2H3.6H3.6c-0.1,0-0.2,0-0.4,0c-0.2,0-0.4-0.1-0.7-0.2S1.9,48,1.7,47.8c-0.3-0.2-0.5-0.5-0.8-0.8l-3.3-4.5H-5V48.5z
			 M-1.5,37.9c0.3,0,0.5-0.1,0.8-0.2s0.5-0.3,0.7-0.5s0.4-0.5,0.5-0.8c0.1-0.3,0.2-0.6,0.2-0.9c0-0.3-0.1-0.6-0.2-0.9
			c-0.1-0.3-0.3-0.5-0.5-0.8s-0.4-0.4-0.7-0.5s-0.5-0.2-0.8-0.2H-5v4.7H-1.5z"/>
		<path class="st2" d="M20.9,48.5H7.6V28.6h13.3v4.3h-8.7v3.5h7.1v4.3h-7.1v3.7h8.7V48.5z"/>
		<path class="st2" d="M27.5,48.5h-4.5V28.6h8c0.9,0,1.8,0.2,2.6,0.6c0.8,0.4,1.5,0.9,2.1,1.5c0.6,0.6,1.1,1.4,1.4,2.2
			c0.4,0.8,0.5,1.7,0.5,2.6s-0.2,1.8-0.5,2.6c-0.4,0.8-0.8,1.6-1.4,2.2c-0.6,0.6-1.3,1.1-2.1,1.5c-0.8,0.4-1.7,0.6-2.6,0.6h-3.5
			V48.5z M31,37.9c0.3,0,0.5-0.1,0.8-0.2c0.3-0.1,0.5-0.3,0.7-0.5c0.2-0.2,0.4-0.5,0.5-0.8s0.2-0.6,0.2-0.9c0-0.3-0.1-0.6-0.2-0.9
			c-0.1-0.3-0.3-0.5-0.5-0.8c-0.2-0.2-0.4-0.4-0.7-0.5c-0.3-0.1-0.5-0.2-0.8-0.2h-3.5v4.7H31z"/>
		<path class="st2" d="M38.1,38.5c0-0.9,0.1-1.8,0.4-2.7c0.2-0.9,0.6-1.7,1-2.4c0.4-0.8,1-1.4,1.6-2.1c0.6-0.6,1.3-1.1,2.1-1.6
			s1.6-0.8,2.4-1c0.9-0.2,1.8-0.4,2.7-0.4s1.8,0.1,2.7,0.4c0.9,0.2,1.7,0.6,2.4,1c0.8,0.4,1.5,1,2.1,1.6c0.6,0.6,1.2,1.3,1.6,2.1
			c0.4,0.8,0.8,1.6,1,2.4c0.2,0.9,0.4,1.8,0.4,2.7c0,0.9-0.1,1.8-0.4,2.7c-0.2,0.9-0.6,1.7-1,2.4c-0.4,0.8-1,1.4-1.6,2.1
			c-0.6,0.6-1.3,1.1-2.1,1.6c-0.8,0.4-1.6,0.8-2.4,1c-0.9,0.2-1.8,0.4-2.7,0.4c-0.9,0-1.9-0.1-2.7-0.4c-0.9-0.2-1.7-0.6-2.4-1
			s-1.5-1-2.1-1.6c-0.6-0.6-1.2-1.3-1.6-2.1c-0.4-0.8-0.8-1.6-1-2.4C38.2,40.4,38.1,39.5,38.1,38.5z M42.6,38.5
			c0,0.8,0.2,1.5,0.5,2.2s0.7,1.3,1.2,1.8c0.5,0.5,1.1,0.9,1.8,1.2s1.4,0.4,2.2,0.4c0.8,0,1.5-0.1,2.2-0.4c0.7-0.3,1.3-0.7,1.8-1.2
			c0.5-0.5,0.9-1.1,1.2-1.8c0.3-0.7,0.5-1.4,0.5-2.2c0-0.8-0.2-1.5-0.5-2.2c-0.3-0.7-0.7-1.3-1.2-1.8s-1.1-0.9-1.8-1.2
			c-0.7-0.3-1.4-0.4-2.2-0.4c-0.8,0-1.5,0.1-2.2,0.4s-1.3,0.7-1.8,1.2c-0.5,0.5-0.9,1.1-1.2,1.8S42.6,37.8,42.6,38.5z"/>
		<path class="st2" d="M64.8,48.5h-4.5V28.6h7.8c0.8,0,1.4,0.1,2.1,0.3s1.2,0.5,1.7,0.8c0.5,0.3,1,0.7,1.4,1.2
			c0.4,0.4,0.7,0.9,1,1.4s0.5,1,0.6,1.6C75,34.4,75,35,75,35.5c0,0.5-0.1,1.1-0.2,1.6s-0.3,1-0.5,1.5c-0.3,0.5-0.6,1-1,1.4
			c-0.4,0.5-0.9,0.9-1.4,1.3l5.3,7.2h-3.8h-0.1c-0.1,0-0.2,0-0.4,0c-0.2,0-0.4-0.1-0.7-0.2s-0.5-0.3-0.8-0.5s-0.5-0.5-0.8-0.8
			l-3.3-4.5h-2.5V48.5z M68.3,37.9c0.3,0,0.5-0.1,0.8-0.2s0.5-0.3,0.7-0.5s0.4-0.5,0.5-0.8c0.1-0.3,0.2-0.6,0.2-0.9
			c0-0.3-0.1-0.6-0.2-0.9c-0.1-0.3-0.3-0.5-0.5-0.8s-0.4-0.4-0.7-0.5s-0.5-0.2-0.8-0.2h-3.5v4.7H68.3z"/>
		<path class="st2" d="M75,32.8v-4.3h15.6v4.3h-5.5v15.7h-4.5V32.8H75z"/>
	</g>
</g>
<g>
	<g>
		<path class="st3" d="M97.2,28.6h1.5c0.7,1.7,1.5,3.4,2.2,5c0.7,1.7,1.5,3.3,2.2,5c0.7,1.6,1.4,3.3,2.2,5c0.7,1.7,1.4,3.3,2.2,5
			h-0.8c-0.3,0-0.7-0.1-0.9-0.3s-0.5-0.4-0.6-0.7l-1.6-3.7h-11l-1.6,3.7c-0.1,0.3-0.3,0.5-0.6,0.7c-0.3,0.2-0.6,0.3-0.9,0.3h-0.8
			L97.2,28.6z M93.2,42h9.5l-4.5-10.2c0-0.1-0.1-0.2-0.1-0.4c0-0.1-0.1-0.3-0.1-0.4c0-0.1,0-0.3-0.1-0.4c0,0.1,0,0.3-0.1,0.4
			c0,0.1,0,0.2-0.1,0.4c0,0.1-0.1,0.3-0.1,0.4L93.2,42z"/>
		<path class="st3" d="M109.2,48.5h-1.7V28.6h7c0.8,0,1.6,0.2,2.3,0.5c0.7,0.3,1.4,0.7,1.9,1.3c0.5,0.5,1,1.2,1.3,1.9
			c0.3,0.7,0.5,1.5,0.5,2.4s-0.2,1.6-0.5,2.4c-0.3,0.7-0.7,1.4-1.3,1.9s-1.2,1-1.9,1.3s-1.5,0.5-2.3,0.5h-5.2V48.5z M114.4,38.9
			c0.6,0,1.2-0.1,1.7-0.3c0.5-0.2,1-0.5,1.4-0.9c0.4-0.4,0.7-0.8,0.9-1.4c0.2-0.5,0.3-1.1,0.3-1.7c0-0.6-0.1-1.2-0.3-1.7
			c-0.2-0.5-0.5-1-0.9-1.4c-0.4-0.4-0.8-0.7-1.4-0.9c-0.5-0.2-1.1-0.3-1.7-0.3h-5.2v8.6H114.4z"/>
		<path class="st3" d="M123.7,48.5H122V28.6h7c0.8,0,1.6,0.2,2.3,0.5c0.7,0.3,1.4,0.7,1.9,1.3c0.5,0.5,1,1.2,1.3,1.9
			c0.3,0.7,0.5,1.5,0.5,2.4s-0.2,1.6-0.5,2.4c-0.3,0.7-0.7,1.4-1.3,1.9s-1.2,1-1.9,1.3s-1.5,0.5-2.3,0.5h-5.2V48.5z M129,38.9
			c0.6,0,1.2-0.1,1.7-0.3c0.5-0.2,1-0.5,1.4-0.9c0.4-0.4,0.7-0.8,0.9-1.4c0.2-0.5,0.3-1.1,0.3-1.7c0-0.6-0.1-1.2-0.3-1.7
			c-0.2-0.5-0.5-1-0.9-1.4c-0.4-0.4-0.8-0.7-1.4-0.9c-0.5-0.2-1.1-0.3-1.7-0.3h-5.2v8.6H129z"/>
	</g>
</g>
<path class="st3" d="M-20.7,20.3h-13.8l13.5,19.3c1.2,1.7,0.8,4.1-0.9,5.4l-15.4,10.8h16.6c4.1,0,7.5-3.3,7.5-7.5V27.8
	C-13.2,23.7-16.6,20.3-20.7,20.3z"/>
<path class="st2" d="M-20.9,39.7l-13.5-19.3h-6.8c-3.8,0-7,2.9-7.4,6.6l9.1,13c1.2,1.7,0.8,4.1-0.9,5.4l-7.8,5.5
	c1,3,3.8,5.1,7.1,5.1h4L-21.9,45C-20.1,43.8-19.7,41.4-20.9,39.7z"/>
<circle class="st3" cx="48.3" cy="38.7" r="3.5"/>
</svg>
